# xmcd
#
# Track frame offsets:
#	150
#	16712
#	36616
#	52964
#	70421
#	83274
#	100216
#	118406
#	135077
#	152418
#	169183
#
# Disc length: 2471 seconds
#
# Revision: 0
# Processed by: cddbd v1.5.1PL0 Copyright (c) Steve Scherf et al.
# Submitted via: dBpowerAMP V4.0
#
DISCID=8109a50b
DTITLE=Antonio Flores - Cosas Mias
DYEAR=1994
DGENRE=Rock
TTITLE0=Isla de Palma
TTITLE1=Juan el Golosinas
TTITLE2=Cuerpo de Mujer
TTITLE3=Arriba los Corazones
TTITLE4=Una Espina
TTITLE5=Alba
TTITLE6=Siete Vidas
TTITLE7=Anti Tu
TTITLE8=Mi Habitacion
TTITLE9=El Indio
TTITLE10=No Dudaria
EXTD=
EXTT0=
EXTT1=
EXTT2=
EXTT3=
EXTT4=
EXTT5=
EXTT6=
EXTT7=
EXTT8=
EXTT9=
EXTT10=
PLAYORDER=
